<?xml version="1.0" encoding="utf-8"?>
<!-- Generator: Adobe Illustrator 23.0.6, SVG Export Plug-In . SVG Version: 6.00 Build 0)  -->
<svg version="1.1" id="Layer_1" xmlns="http://www.w3.org/2000/svg" xmlns:xlink="http://www.w3.org/1999/xlink" x="0px" y="0px"
	 viewBox="0 0 64 64" style="enable-background:new 0 0 64 64;" xml:space="preserve">
<style type="text/css">
	.st0{fill:#A4ADB1;}
	.st1{fill:#FBFBFB;}
</style>
<g>
	<path id="ic_cloud_24px_2_" class="st0" d="M49.77,26.832c-1.938-9.803-11.456-16.18-21.26-14.242
		c-5.397,1.067-10.016,4.531-12.551,9.414C8.006,22.847,2.24,29.977,3.082,37.93c0.781,7.385,7.022,12.982,14.448,12.958h31.395
		c6.65,0.019,12.056-5.356,12.075-12.006c0.018-6.349-4.896-11.621-11.23-12.048V26.832z"/>
	<path id="Path_22_1_" class="st1" d="M38.977,35.057c-0.183-0.28-0.393-0.542-0.626-0.782c-0.037-0.037-0.082-0.084-0.135-0.134
		l-0.052-0.048c-0.28-0.256-0.594-0.473-0.933-0.644c0.609-0.299,1.125-0.757,1.495-1.326c0.442-0.697,0.66-1.513,0.626-2.338
		c0.033-1.154-0.412-2.27-1.229-3.085c-0.989-0.882-2.294-1.325-3.616-1.229h-1.126v-2.782c-0.001-0.38-0.309-0.688-0.689-0.689
		h-0.058c-0.38,0.001-0.688,0.309-0.689,0.689v2.776H29.21v-2.776c-0.001-0.38-0.309-0.688-0.689-0.689h-0.058
		c-0.38,0.001-0.688,0.309-0.689,0.689v2.782h-1.537c-0.38,0.001-0.688,0.309-0.689,0.689v0.058c0.001,0.38,0.309,0.688,0.689,0.689
		h1.448v3.204c-1.508,0.635-3.159,0.854-4.781,0.632c-0.054-0.015-0.11,0.017-0.125,0.071c-0.009,0.031-0.002,0.065,0.018,0.09
		c1.148,1.813,2.866,3.192,4.885,3.92v0.391v1.43l0,0v4.259h-1.448c-0.38,0.001-0.688,0.309-0.689,0.689v0.058
		c0.001,0.38,0.309,0.688,0.689,0.689h1.54v2.645c0.001,0.38,0.309,0.688,0.689,0.689h0.058c0.38-0.001,0.688-0.309,0.689-0.689
		v-2.65h2.735v2.65c0.001,0.38,0.309,0.688,0.689,0.689h0.058c0.38-0.001,0.688-0.309,0.689-0.689v-2.65h1.297
		c0.943,0.026,1.876-0.203,2.7-0.663c0.728-0.414,1.325-1.023,1.723-1.759c0.391-0.721,0.594-1.529,0.591-2.349
		C39.709,36.675,39.46,35.803,38.977,35.057z M29.205,26.911h4.988c0.959-0.066,1.912,0.188,2.711,0.722
		c0.638,0.523,0.984,1.322,0.928,2.145c0.05,0.846-0.293,1.668-0.928,2.229c-0.359,0.292-0.778,0.5-1.228,0.61
		c-1.721-0.865-3.638-1.267-5.561-1.165c1.737-0.588,3.623-0.563,5.344,0.072c0.051,0.022,0.111-0.001,0.134-0.052
		c0.016-0.037,0.009-0.079-0.018-0.109c-1.533-1.882-4.098-2.575-6.37-1.72V26.911z M37.182,39.961
		c-0.76,0.654-1.745,0.987-2.747,0.928h-5.23v-5.704c1.918,0.273,3.874-0.054,5.6-0.936c0.238,0.013,0.474,0.043,0.708,0.089l0,0
		c0.107,0.021,0.211,0.047,0.312,0.076l0.04,0.013c0.084,0.025,0.166,0.052,0.246,0.082l0.043,0.016
		c1.693,0.733,2.471,2.7,1.738,4.393c-0.169,0.39-0.411,0.745-0.713,1.044L37.182,39.961z"/>
</g>
</svg>
