<?xml version="1.0" encoding="utf-8"?>
<!-- Generator: Adobe Illustrator 23.0.6, SVG Export Plug-In . SVG Version: 6.00 Build 0)  -->
<svg version="1.1" id="Layer_1" xmlns="http://www.w3.org/2000/svg" xmlns:xlink="http://www.w3.org/1999/xlink" x="0px" y="0px"
	 viewBox="0 0 64 64" style="enable-background:new 0 0 64 64;" xml:space="preserve">
<style type="text/css">
	.st0{clip-path:url(#SVGID_2_);}
	.st1{fill:#FBFBFB;}
	.st2{fill:#E3E6E8;}
</style>
<g>
	<defs>
		<rect id="SVGID_1_" x="2.97" y="2.485" width="59.03" height="59.03"/>
	</defs>
	<g id="Symbol_6_6" class="st0">
		<g id="Path_23">
			<path class="st1" d="M32.485,59.993c-3.78,0-7.446-0.74-10.896-2.199c-3.333-1.41-6.327-3.428-8.899-6s-4.59-5.565-6-8.899
				C5.232,39.446,4.492,35.78,4.492,32s0.74-7.446,2.199-10.896c1.41-3.333,3.428-6.327,6-8.899s5.565-4.59,8.899-6
				c3.45-1.459,7.116-2.199,10.896-2.199s7.446,0.74,10.896,2.199c3.333,1.41,6.327,3.428,8.899,6c2.571,2.571,4.59,5.565,6,8.899
				c1.459,3.45,2.199,7.116,2.199,10.896s-0.74,7.446-2.199,10.896c-1.41,3.333-3.428,6.327-6,8.899
				c-2.571,2.571-5.565,4.59-8.899,6C39.931,59.254,36.265,59.993,32.485,59.993z"/>
			<path class="st2" d="M32.485,5.528c-3.575,0-7.042,0.699-10.303,2.079c-3.152,1.333-5.983,3.242-8.415,5.674
				s-4.341,5.263-5.674,8.415C6.713,24.958,6.013,28.425,6.013,32s0.699,7.042,2.079,10.303c1.333,3.152,3.242,5.983,5.674,8.415
				c2.432,2.432,5.263,4.341,8.415,5.674c3.262,1.38,6.728,2.079,10.303,2.079c3.575,0,7.042-0.699,10.303-2.079
				c3.152-1.333,5.983-3.242,8.415-5.674c2.432-2.432,4.341-5.263,5.674-8.415c1.38-3.262,2.079-6.728,2.079-10.303
				s-0.699-7.042-2.079-10.303c-1.333-3.152-3.242-5.983-5.674-8.415c-2.432-2.432-5.263-4.341-8.415-5.674
				C39.527,6.227,36.06,5.528,32.485,5.528 M32.485,2.485C48.786,2.485,62,15.699,62,32S48.786,61.515,32.485,61.515
				S2.97,48.301,2.97,32S16.185,2.485,32.485,2.485z"/>
		</g>
		<path id="Path_22" class="st2" d="M42.428,33.95c-0.253-0.388-0.543-0.751-0.867-1.083c-0.05-0.052-0.114-0.115-0.188-0.183
			c-0.024-0.023-0.047-0.045-0.071-0.067c-0.387-0.358-0.822-0.661-1.293-0.901c0.842-0.414,1.557-1.048,2.069-1.835
			c0.612-0.965,0.914-2.094,0.867-3.236c0.045-1.598-0.571-3.143-1.704-4.27c-1.136-1.136-2.804-1.704-5.004-1.704h-1.56v-3.845
			c-0.001-0.526-0.428-0.952-0.954-0.954h-0.081c-0.526,0.002-0.952,0.428-0.953,0.954v3.843h-3.794v-3.843
			c-0.001-0.526-0.427-0.952-0.954-0.954h-0.081c-0.526,0.002-0.952,0.428-0.953,0.954v3.852h-2.13
			c-0.526,0.002-0.952,0.428-0.953,0.954v0.08c0.002,0.526,0.427,0.951,0.953,0.953h2.015V27.1c-2.13,0.688-4.335,1.372-6.617,0.874
			c-0.076-0.017-0.151,0.031-0.168,0.106c-0.009,0.038-0.001,0.078,0.021,0.11c1.589,2.51,3.969,4.42,6.763,5.427v0.542l-0.004,1.98
			h0.004v5.896h-2.011c-0.526,0.002-0.952,0.428-0.953,0.954v0.08c0.001,0.526,0.427,0.952,0.953,0.954h2.13v3.668
			c0.002,0.526,0.427,0.951,0.953,0.953h0.08c0.526-0.001,0.952-0.427,0.954-0.953v-3.668h3.794v3.668
			c0.002,0.526,0.427,0.951,0.953,0.953h0.08c0.525-0.002,0.95-0.428,0.952-0.953v-3.668h1.795c1.306,0.035,2.596-0.282,3.737-0.918
			c1.007-0.572,1.833-1.416,2.385-2.434c0.541-0.998,0.822-2.117,0.817-3.253C43.435,36.19,43.093,34.983,42.428,33.95z
			 M28.897,22.671h6.906c1.327-0.091,2.647,0.262,3.754,1.001c0.883,0.724,1.361,1.83,1.284,2.969
			c0.069,1.171-0.404,2.309-1.284,3.086c-0.497,0.405-1.077,0.693-1.7,0.845c-2.382-1.198-5.035-1.754-7.697-1.613
			c2.39-0.609,4.952-0.985,7.398,0.099c0.072,0.03,0.155-0.003,0.185-0.075c0.021-0.049,0.012-0.105-0.022-0.146
			c-3.031-3.303-5.964-3.154-8.819-2.381L28.897,22.671z M39.939,40.737c-1.052,0.906-2.416,1.367-3.803,1.284h-7.24v-7.895
			c2.656,0.378,5.363-0.075,7.752-1.296c0.329,0.018,0.656,0.059,0.979,0.122h0.004c0.148,0.03,0.292,0.065,0.432,0.105l0.056,0.017
			c0.116,0.034,0.23,0.072,0.341,0.113c0.019,0.007,0.041,0.014,0.061,0.021c2.344,1.016,3.421,3.739,2.405,6.083
			c-0.234,0.54-0.569,1.03-0.987,1.445L39.939,40.737z"/>
	</g>
</g>
</svg>
