<?xml version="1.0" encoding="utf-8"?>
<!-- Generator: Adobe Illustrator 23.0.6, SVG Export Plug-In . SVG Version: 6.00 Build 0)  -->
<svg version="1.1" id="Layer_1" xmlns="http://www.w3.org/2000/svg" xmlns:xlink="http://www.w3.org/1999/xlink" x="0px" y="0px"
	 viewBox="0 0 64 64" style="enable-background:new 0 0 64 64;" xml:space="preserve">
<style type="text/css">
	.st0{fill:none;stroke:#263238;stroke-width:2;}
	.st1{fill:#00A519;}
	.st2{fill:#FFFFFF;}
	.st3{fill:none;stroke:#263238;stroke-width:3;}
	.st4{fill:#FBFBFB;}
</style>
<g>
	<line id="Line_5" class="st0" x1="33.175" y1="32.241" x2="33.175" y2="53.647"/>
	<line id="Line_6" class="st0" x1="33.175" y1="53.647" x2="54.581" y2="53.647"/>
	<line id="Line_7" class="st0" x1="11.768" y1="53.647" x2="33.175" y2="53.647"/>
	<path id="ic_cloud_24px" class="st1" d="M50.261,19.469C48.332,9.709,38.856,3.361,29.096,5.29
		c-5.372,1.062-9.97,4.51-12.494,9.371C8.686,15.527,2.971,22.647,3.838,30.563c0.8,7.31,6.973,12.847,14.327,12.85h31.253
		c6.621-0.003,11.985-5.373,11.982-11.993c-0.003-6.29-4.867-11.507-11.141-11.952H50.261z"/>
	<g id="Ellipse_4" transform="translate(23 41)">
		<circle class="st2" cx="10.175" cy="12.647" r="4.816"/>
		<circle class="st3" cx="10.175" cy="12.647" r="3.211"/>
	</g>
	<path id="checked-icon" class="st4" d="M25.092,28.319c-0.248-0.242-0.252-0.641-0.009-0.888c0.003-0.003,0.006-0.006,0.009-0.009
		l0.881-0.898c0.226-0.243,0.607-0.257,0.85-0.031c0.011,0.01,0.021,0.02,0.031,0.031l0.063,0.064l3.463,3.786
		c0.112,0.121,0.302,0.129,0.424,0.016c0.005-0.005,0.011-0.01,0.016-0.016l8.435-8.919h0.063c0.226-0.243,0.605-0.258,0.848-0.032
		c0.011,0.01,0.022,0.021,0.032,0.032l0.882,0.898c0.248,0.244,0.251,0.642,0.008,0.89c-0.003,0.003-0.005,0.005-0.008,0.008l0,0
		L31.01,33.902c-0.224,0.243-0.604,0.258-0.847,0.034c-0.012-0.011-0.023-0.022-0.034-0.034l-4.909-5.39L25.092,28.319z"/>
</g>
</svg>
