<?xml version="1.0" encoding="utf-8"?>
<!-- Generator: Adobe Illustrator 23.0.6, SVG Export Plug-In . SVG Version: 6.00 Build 0)  -->
<svg version="1.1" id="Layer_1" xmlns="http://www.w3.org/2000/svg" xmlns:xlink="http://www.w3.org/1999/xlink" x="0px" y="0px"
	 viewBox="0 0 64 64" style="enable-background:new 0 0 64 64;" xml:space="preserve">
<style type="text/css">
	.st0{fill:none;stroke:#263238;stroke-width:2;}
	.st1{fill:#E90000;}
	.st2{fill:#FFFFFF;}
	.st3{fill:none;stroke:#263238;stroke-width:3;}
	.st4{fill:#FBFBFB;}
</style>
<g>
	<line id="Line_5_1_" class="st0" x1="33.016" y1="32.241" x2="33.016" y2="53.647"/>
	<line id="Line_6_1_" class="st0" x1="33.016" y1="53.647" x2="54.422" y2="53.647"/>
	<line id="Line_7_1_" class="st0" x1="11.609" y1="53.647" x2="33.016" y2="53.647"/>
	<path id="ic_cloud_24px_1_" class="st1" d="M50.103,19.469C48.173,9.709,38.698,3.361,28.938,5.29
		c-5.372,1.062-9.97,4.51-12.494,9.371C8.528,15.527,2.813,22.647,3.679,30.563c0.8,7.31,6.973,12.847,14.327,12.85H49.26
		c6.621-0.003,11.985-5.373,11.982-11.993c-0.003-6.29-4.867-11.507-11.141-11.952H50.103z"/>
	<g id="Ellipse_4_1_" transform="translate(23 41)">
		<circle class="st2" cx="10.016" cy="12.647" r="4.816"/>
		<circle class="st3" cx="10.016" cy="12.647" r="3.211"/>
	</g>
	<path id="ic_sync_problem_24px" class="st4" d="M21.778,27.731c0.001,2.41,0.967,4.719,2.682,6.411l-2.682,2.679h6.82v-6.82
		l-2.546,2.546c-2.661-2.657-2.664-6.968-0.007-9.628c0.72-0.721,1.592-1.271,2.553-1.61v-2.38
		C24.582,19.964,21.776,23.585,21.778,27.731z M30.875,33.415h2.273v-2.277h-2.273V33.415z M42.239,18.634h-6.82v6.82l2.546-2.546
		c2.661,2.657,2.664,6.968,0.007,9.628c-0.72,0.721-1.592,1.271-2.553,1.61v2.376c4.846-1.237,7.772-6.168,6.536-11.014
		c-0.405-1.589-1.235-3.038-2.399-4.192L42.239,18.634z M30.875,28.864h2.273v-6.82h-2.273V28.864z"/>
</g>
</svg>
