<?xml version="1.0" encoding="utf-8"?>
<!-- Generator: Adobe Illustrator 23.0.6, SVG Export Plug-In . SVG Version: 6.00 Build 0)  -->
<svg version="1.1" id="Layer_1" xmlns="http://www.w3.org/2000/svg" xmlns:xlink="http://www.w3.org/1999/xlink" x="0px" y="0px"
	 viewBox="0 0 64 64" style="enable-background:new 0 0 64 64;" xml:space="preserve">
<style type="text/css">
	.st0{fill:#00A519;}
</style>
<g id="iconfinder_pickaxe_296208" transform="translate(-144.391 -142.778)">
	<path id="Path_18" class="st0" d="M202.885,193.269l-24.491-24.491c0.875-1.543,0.615-3.481-0.638-4.737l-0.093-0.093
		l12.681-12.681c0.97-0.966,0.973-2.534,0.007-3.504c-0.242-0.243-0.532-0.433-0.851-0.558c-0.789-0.293-1.626-0.437-2.468-0.424
		c-4.333,0-10.898,3.273-17.728,8.805l-0.532-0.532c-1.255-1.255-3.194-1.517-4.737-0.64l-0.14-0.14
		c-2.128-2.128-5.578-2.128-7.706,0c-2.128,2.128-2.128,5.578,0,7.706l0,0l0.14,0.14c-0.875,1.543-0.615,3.481,0.638,4.737
		l0.535,0.535c-5.454,6.749-10.304,15.292-8.383,20.196c0.502,1.275,1.942,1.901,3.217,1.399c0.317-0.125,0.605-0.314,0.846-0.555
		l12.681-12.681l0.093,0.093c1.255,1.255,3.194,1.517,4.737,0.64l24.489,24.489c2.128,2.128,5.578,2.128,7.706,0
		c2.128-2.128,2.128-5.578,0-7.706L202.885,193.269z M168.742,173.996c-0.25,0.001-0.491-0.098-0.667-0.275l-2.208-2.208
		l-14.138,14.138c0.003-2.164,0.536-4.295,1.551-6.207c1.971-4.031,4.46-7.787,7.404-11.172l0.888-1.055l-2.473-2.473
		c-0.368-0.368-0.368-0.964,0-1.332l6.222-6.222c0.368-0.366,0.964-0.366,1.332,0l2.473,2.473l1.055-0.888
		c6.585-5.537,13.044-8.979,16.859-8.979c0.174-0.001,0.347,0.008,0.52,0.025l-14.136,14.136l2.208,2.208
		c0.368,0.368,0.368,0.964,0,1.332l-6.222,6.222C169.233,173.897,168.993,173.997,168.742,173.996z M157.702,157.431
		c0.393-1.297,1.763-2.029,3.059-1.636c0.301,0.091,0.582,0.239,0.827,0.437c0.064,0.052,0.125,0.108,0.186,0.167l0.037,0.037
		l-3.457,3.457l-0.037-0.037c-0.456-0.455-0.714-1.073-0.716-1.717c-0.004-0.239,0.027-0.477,0.091-0.707H157.702z M201.457,197.356
		c-0.106,1.076-0.903,1.955-1.963,2.166c-0.154,0.03-0.31,0.044-0.466,0.044c-0.645-0.002-1.262-0.26-1.717-0.716l-24.388-24.388
		l3.457-3.457l4.889,4.889l19.497,19.497c0.402,0.401,0.651,0.929,0.704,1.494C201.481,197.042,201.477,197.2,201.457,197.356z"/>
</g>
</svg>
