<?xml version="1.0" encoding="utf-8"?>
<!-- Generator: Adobe Illustrator 23.0.3, SVG Export Plug-In . SVG Version: 6.00 Build 0)  -->
<svg version="1.1" id="Layer_1" xmlns="http://www.w3.org/2000/svg" xmlns:xlink="http://www.w3.org/1999/xlink" x="0px" y="0px"
	 viewBox="0 0 64 64" style="enable-background:new 0 0 64 64;" xml:space="preserve">
<style type="text/css">
	.st0{display:none;fill:#A4ADB1;}
	.st1{fill:#A4ADB1;}
</style>
<path id="Shape_1" class="st0" d="M8.402,57.55c-2.04,0.006-3.699-1.643-3.705-3.683c0,0,0,0,0,0V20.561
	c0.008-2.039,1.665-3.687,3.705-3.683h45.947c2.039-0.005,3.697,1.643,3.705,3.683v7.911h-0.227H45.306
	c-2.644-0.005-4.793,2.13-4.807,4.774v7.947c0.011,2.646,2.161,4.784,4.807,4.779h12.521h0.227v7.908
	c-0.005,2.04-1.662,3.69-3.702,3.685c-0.001,0-0.002,0-0.003,0L8.402,57.55z M45.306,43.343c-1.197,0.003-2.17-0.965-2.174-2.162
	c0,0,0,0,0,0v-7.936c0.003-1.197,0.976-2.166,2.174-2.162c0,0,0,0,0,0h12.521c1.197-0.003,2.17,0.965,2.174,2.162c0,0,0,0,0,0v7.947
	c-0.003,1.197-0.976,2.166-2.174,2.162c0,0,0,0,0,0L45.306,43.343z M46.485,37.213c-0.009,1.731,1.387,3.142,3.118,3.151
	c1.731,0.009,3.142-1.387,3.151-3.118c0.009-1.731-1.387-3.142-3.118-3.151c-0.005,0-0.009,0-0.014,0
	c-1.726-0.006-3.131,1.388-3.137,3.115C46.485,37.211,46.485,37.212,46.485,37.213z M23.025,13.287l18.828-6.186
	c2.502-0.822,5.198,0.528,6.039,3.024l1.049,3.159L23.025,13.287z"/>
<path id="ic_send_24px" class="st0" d="M26.617,57.712L61,11.744L4,18.539l8.776,15.25l35.155-14.5L17.8,42.491L26.617,57.712z"/>
<path id="Path_24" class="st0" d="M32.264,2.917l9.059,18.118l19.931,2.9L46.753,38.063l3.263,19.931l-17.752-9.416L14.504,58
	l3.26-19.937L3.269,23.935l19.931-2.9L32.264,2.917z"/>
<path id="ic_group_24px" class="st1" d="M42.679,29.704c4.337,0,7.852-3.515,7.852-7.852S47.015,14,42.679,14
	s-7.852,3.515-7.852,7.852c-0.019,4.318,3.466,7.833,7.784,7.852C42.633,29.704,42.656,29.704,42.679,29.704z M21.74,29.704
	c4.337,0,7.852-3.515,7.852-7.852S26.076,14,21.74,14s-7.852,3.515-7.852,7.852c-0.019,4.318,3.466,7.833,7.784,7.852
	C21.694,29.704,21.717,29.704,21.74,29.704z M21.74,34.939c-6.098,0-18.321,3.062-18.321,9.161v6.543h36.643v-6.543
	C40.061,38.001,27.838,34.939,21.74,34.939z M42.679,34.939c-0.759,0-1.623,0.052-2.539,0.131c3.117,1.962,5.05,5.348,5.156,9.03
	v6.543H61v-6.543C61,38.001,48.777,34.939,42.679,34.939z"/>
<path id="Union_1" class="st0" d="M45.059,57.987V18.275H58.3V58L45.059,57.987z M25.213,57.987V5.041h13.225v52.946H25.213z
	 M5.351,57.987V31.503h13.244v26.481L5.351,57.987z"/>
</svg>
