<?xml version="1.0" encoding="utf-8"?>
<!-- Generator: Adobe Illustrator 23.0.6, SVG Export Plug-In . SVG Version: 6.00 Build 0)  -->
<svg version="1.1" id="Layer_1" xmlns="http://www.w3.org/2000/svg" xmlns:xlink="http://www.w3.org/1999/xlink" x="0px" y="0px"
	 viewBox="0 0 64 64" style="enable-background:new 0 0 64 64;" xml:space="preserve">
<style type="text/css">
	.st0{fill:#A4ADB1;}
</style>
<path id="coupon-icon" class="st0" d="M9.42,59.808c-0.969-0.401-1.6-1.347-1.6-2.395V5.59C7.82,4.16,8.979,3.001,10.408,3
	c0.001,0,0.001,0,0.002,0h43.963c1.43-0.001,2.589,1.158,2.59,2.588c0,0.001,0,0.001,0,0.002v51.819
	C56.962,58.84,55.8,60,54.369,59.999c-0.686-0.001-1.343-0.273-1.829-0.757l-5.494-5.501l-5.494,5.501
	c-1.013,1.01-2.651,1.01-3.664,0l-5.494-5.501l-5.501,5.501c-1.013,1.01-2.651,1.01-3.664,0l-5.494-5.501l-5.494,5.501
	c-0.741,0.74-1.855,0.962-2.823,0.561L9.42,59.808z M34.225,48.252l5.501,5.501l5.494-5.501c1.013-1.01,2.651-1.01,3.664,0
	l2.905,2.906V8.181H13.004v42.977l2.905-2.906c1.013-1.01,2.651-1.01,3.664,0l5.494,5.501l5.494-5.501
	c1.013-1.01,2.651-1.01,3.664,0H34.225z M39.187,40.661v-0.206c-2.149-0.297-3.668-1.607-3.668-2.782
	c0-0.803,0.614-1.472,1.414-1.54c0.427,0.035,0.818,0.252,1.074,0.595c0.311,0.368,0.72,0.639,1.181,0.782v-3.741
	c-1.534-0.562-3.338-1.443-3.338-4.077c-0.085-1.978,1.37-3.687,3.337-3.918v-0.157c0.023-0.688,0.598-1.229,1.286-1.21
	c0.685-0.01,1.253,0.526,1.284,1.21v0.092c1.286,0.19,2.789,0.729,2.789,1.903c0.01,0.799-0.599,1.471-1.395,1.54
	c-0.294-0.017-0.58-0.106-0.832-0.26c-0.18-0.098-0.368-0.181-0.561-0.25v2.92c1.92,0.605,3.197,2.42,3.119,4.432
	c0.139,2.001-1.176,3.813-3.121,4.302v0.354c-0.03,0.684-0.599,1.22-1.284,1.21c-0.686,0.019-1.259-0.519-1.285-1.205L39.187,40.661
	z M41.707,37.106c0.2-0.293,0.297-0.645,0.273-0.999c0.022-0.373-0.073-0.744-0.273-1.061V37.106z M38.736,29.576
	c-0.037,0.394,0.155,0.773,0.493,0.978v-1.837c-0.332,0.151-0.533,0.496-0.499,0.859H38.736z M20.774,41.003
	c-1.431,0-2.592-1.16-2.592-2.592c0-1.431,1.16-2.591,2.592-2.591h9.42c1.431,0,2.592,1.16,2.592,2.591
	c0,1.431-1.16,2.592-2.592,2.592H20.774z M20.774,30.639c-1.431,0-2.591-1.16-2.591-2.591c0-1.431,1.16-2.591,2.591-2.591l0,0h9.42
	c1.431,0.001,2.59,1.162,2.589,2.593c-0.001,1.43-1.16,2.588-2.589,2.589L20.774,30.639z M20.774,20.274
	c-1.431,0-2.592-1.16-2.592-2.592c0-1.431,1.16-2.592,2.592-2.592h23.237c1.431,0,2.591,1.16,2.591,2.592
	c0,1.431-1.16,2.592-2.591,2.592H20.774z"/>
</svg>
